<?xml version="1.0" encoding="utf-8" standalone="no"?>
<!DOCTYPE svg PUBLIC "-//W3C//DTD SVG 1.1//EN" "http://www.w3.org/Graphics/SVG/1.1/DTD/svg11.dtd">
<svg viewBox="0 0 120 120" fill="none" xmlns="http://www.w3.org/2000/svg">
	<circle cx="60" cy="60" r="60" fill="#001C29" />
	<path d="M64.6 24.906h-7v-4.9h7v4.9z" fill="#EAF874" />
	<path d="M58.302 32.9h-1.3V20h1.3v12.9z" fill="#EAF874" />
	<path d="M55 32.294c-8.6 0-15.6 7-15.6 15.6v20.5h31.2v-20.5c0-8.6-7-15.6-15.6-15.6z" fill="url(#a-no-message)" />
	<path d="M84.9 32.294H55c8.6 0 15.6 7 15.6 15.6v20.5h-1.8v2.9h31.3v-23.4c0-8.4-6.8-15.3-15.2-15.6z"
		fill="url(#b-no-message)" />
	<path d="M55 32.294c-1.3 0-2.5.2-3.7.5 1.1 7.1 5.2 24.6 19.3 35.6v-20.5c0-8.6-7-15.6-15.6-15.6z" fill="#00212E" />
	<path d="M97.4 39.195H68c1.3 1.9 2.1 4 2.5 6.3h29.4c-.4-2.3-1.3-4.5-2.5-6.3z" fill="url(#c-no-message)" />
	<path d="M67 37.894h29.4c-.6-.7-1.2-1.3-1.9-1.9H65c.8.6 1.4 1.2 2 1.9z" fill="url(#d-no-message)" />
	<path d="M67.6 100.095h6.3v-28.8h-6.3v28.8z" fill="url(#e-no-message)" />
	<path d="M64.8 71.294h2.8v28.801h-2.8v-28.8z" fill="url(#f-no-message)" />
	<path d="M67.6 79.594h6.3v-8.3h-6.3v8.3z" fill="url(#g-no-message)" />
	<path d="M64.8 71.294h2.8v8.4h-2.8v-8.4z" fill="url(#h-no-message)" />
	<path d="M70.6 71.294H29.3c-1.6 0-2.9-1.3-2.9-2.9h44.2v2.9z" fill="url(#i-no-message)" />
	<path
		d="M44.5 51.095c1.5-2.1 2.3-4.7 2.3-7.5 0-7.4-6-13.4-13.4-13.4s-13.4 6-13.4 13.4 6 13.4 13.4 13.4c1.6 0 3-.3 4.4-.8.4-.1.7-.3 1.1-.4 1-.2 2.8-.1 6 1 .1 0-2-3.2-.4-5.7z"
		fill="url(#-no-messagej)" />
	<path
		d="M37.4 54.195c-6.9 0-12.4-5.6-12.4-12.4 0-5.3 3.3-9.8 7.9-11.6-7.1.3-12.8 6.1-12.8 13.4 0 7.4 6 13.4 13.4 13.4 3.8 0 7.2-1.6 9.6-4.1-1.7.8-3.6 1.3-5.7 1.3z"
		fill="url(#k-no-message)" />
	<path
		d="M33.5 45.294a1.7 1.7 0 1 1 0-3.4 1.7 1.7 0 0 1 0 3.4zM39 44.694a1.1 1.1 0 1 1 0-2.2 1.1 1.1 0 0 1 0 2.2zM27.9 44.694a1.1 1.1 0 1 1 0-2.2 1.1 1.1 0 0 1 0 2.2z"
		fill="#677314" />
	<path d="M50 61.494a3 3 0 1 1 0-6 3 3 0 0 1 0 6z" fill="url(#l-no-message)" />
	<path d="M57.7 61.794a1.4 1.4 0 1 1 0-2.8 1.4 1.4 0 0 1 0 2.8z" fill="url(#m-no-message)" />
	<defs>
		<linearGradient id="a-no-message" x1="44.526" y1="69.265" x2="63.391" y2="44.487"
			gradientUnits="userSpaceOnUse">
			<stop offset="0" stop-color="#465F6C" />
			<stop offset=".316" stop-color="#354D5A" />
			<stop offset=".947" stop-color="#0A202C" />
			<stop offset="1" stop-color="#061C28" />
		</linearGradient>
		<linearGradient id="b-no-message" x1="77.531" y1="71.871" x2="77.531" y2="37.935"
			gradientUnits="userSpaceOnUse">
			<stop offset="0" stop-color="#102834" />
			<stop offset=".589" stop-color="#334B58" />
			<stop offset="1" stop-color="#465F6C" />
		</linearGradient>
		<linearGradient id="c-no-message" x1="72.403" y1="46.135" x2="96.617" y2="38.11" gradientUnits="userSpaceOnUse">
			<stop offset="0" stop-color="#fff" stop-opacity=".4" />
			<stop offset="1" stop-color="#fff" stop-opacity="0" />
		</linearGradient>
		<linearGradient id="d-no-message" x1="70.484" y1="40.343" x2="94.698" y2="32.318"
			gradientUnits="userSpaceOnUse">
			<stop offset="0" stop-color="#fff" stop-opacity=".4" />
			<stop offset="1" stop-color="#fff" stop-opacity="0" />
		</linearGradient>
		<linearGradient id="e-no-message" x1="70.767" y1="73.35" x2="70.767" y2="99.236" gradientUnits="userSpaceOnUse">
			<stop offset="0" stop-color="#061C28" />
			<stop offset=".653" stop-color="#334B58" />
			<stop offset="1" stop-color="#465F6C" />
		</linearGradient>
		<linearGradient id="f-no-message" x1="66.192" y1="63.545" x2="66.192" y2="90.226"
			gradientUnits="userSpaceOnUse">
			<stop offset="0" stop-color="#061C28" />
			<stop offset=".053" stop-color="#0A202C" />
			<stop offset=".684" stop-color="#354D5A" />
			<stop offset="1" stop-color="#465F6C" />
		</linearGradient>
		<linearGradient id="g-no-message" x1="70.767" y1="68.708" x2="70.767" y2="195.846"
			gradientUnits="userSpaceOnUse">
			<stop offset="0" stop-color="#061C28" />
			<stop offset=".653" stop-color="#334B58" />
			<stop offset="1" stop-color="#465F6C" />
		</linearGradient>
		<linearGradient id="h-no-message" x1="66.192" y1="53.08" x2="66.192" y2="111.765"
			gradientUnits="userSpaceOnUse">
			<stop offset=".195" stop-color="#061C28" />
			<stop offset=".721" stop-color="#334B58" />
			<stop offset="1" stop-color="#465F6C" />
		</linearGradient>
		<linearGradient id="i-no-message" x1="-6.288" y1="69.83" x2="39.388" y2="69.83" gradientUnits="userSpaceOnUse">
			<stop offset="0" stop-color="#102834" />
			<stop offset=".589" stop-color="#334B58" />
			<stop offset="1" stop-color="#465F6C" />
		</linearGradient>
		<linearGradient id="j-no-message" x1="38.31" y1="55.183" x2="29.031" y2="32.927" gradientUnits="userSpaceOnUse">
			<stop offset="0" stop-color="#B7C54A" />
			<stop offset=".144" stop-color="#C4D255" />
			<stop offset=".438" stop-color="#D9E766" />
			<stop offset=".727" stop-color="#E6F470" />
			<stop offset="1" stop-color="#EAF874" />
		</linearGradient>
		<linearGradient id="k-no-message" x1="27.416" y1="55.474" x2="39.695" y2="29.613"
			gradientUnits="userSpaceOnUse">
			<stop offset="0" stop-color="#B7C54A" />
			<stop offset=".144" stop-color="#C4D255" />
			<stop offset=".438" stop-color="#D9E766" />
			<stop offset=".727" stop-color="#E6F470" />
			<stop offset="1" stop-color="#EAF874" />
		</linearGradient>
		<linearGradient id="l-no-message" x1="51.975" y1="60.726" x2="48.417" y2="56.61" gradientUnits="userSpaceOnUse">
			<stop offset="0" stop-color="#B7C54A" />
			<stop offset=".258" stop-color="#BDCB4F" />
			<stop offset=".608" stop-color="#CEDC5D" />
			<stop offset="1" stop-color="#EAF874" />
		</linearGradient>
		<linearGradient id="m-no-message" x1="58.589" y1="61.377" x2="56.973" y2="59.508"
			gradientUnits="userSpaceOnUse">
			<stop offset="0" stop-color="#B7C54A" />
			<stop offset=".258" stop-color="#BDCB4F" />
			<stop offset=".608" stop-color="#CEDC5D" />
			<stop offset="1" stop-color="#EAF874" />
		</linearGradient>
	</defs>
</svg>
