<?xml version="1.0" encoding="utf-8" standalone="no"?>
<!DOCTYPE svg PUBLIC "-//W3C//DTD SVG 1.1//EN" "http://www.w3.org/Graphics/SVG/1.1/DTD/svg11.dtd">
<svg fill="none" xmlns="http://www.w3.org/2000/svg" viewBox="0 0 60 60">
	<path d="M30 60c16.569 0 30-13.431 30-30C60 13.431 46.569 0 30 0 13.431 0 0 13.431 0 30c0 16.569 13.431 30 30 30z"
		fill="url(#a-subroom)" />
	<path d="M30 57.5c15.188 0 27.5-12.312 27.5-27.5S45.188 2.5 30 2.5 2.5 14.812 2.5 30 14.812 57.5 30 57.5z"
		fill="url(#b-subroom)" />
	<path
		d="m31.5 29.127-3.125-.625c-.125 0-.25-.25-.25-.375v-.125c0-.125.25-.25.375-.25l3.125.625c.125 0 .25.25.25.375v.125c0 .125-.25.25-.375.25z"
		fill="url(#c-subroom)" />
	<path opacity=".5" d="M30.25 47.5c7.732 0 14-.56 14-1.25S37.982 45 30.25 45s-14 .56-14 1.25 6.268 1.25 14 1.25z"
		fill="#08212D" />
	<path
		d="M38.625 11.25h-15.5c-.875 0-1.625.75-1.625 1.625V40.5c0 .875.75 1.625 1.625 1.625H40.25V12.75c0-.75-.75-1.5-1.625-1.5z"
		fill="#061C28" />
	<path d="m33.375 44.5-11.75-2.375V11.25l12.25 2.5c.5.125.875.5.875 1.125V43.5c-.125.625-.75 1.125-1.375 1z"
		fill="url(#d-subroom)" />
	<path opacity=".5"
		d="M33.25 31.25c-.25 0-.375-.125-.375-.375V28.5c0-.25.125-.375.375-.375s.375.125.375.375v2.375c0 .125-.25.375-.375.375z"
		fill="#08212D" />
	<path
		d="m32.625 29.375-3-.625c-.25 0-.375-.25-.25-.5 0-.25.25-.375.5-.25l3 .625c.25 0 .375.25.25.5-.125.125-.375.25-.5.25z"
		fill="url(#e-subroom)" />
	<defs>
		<linearGradient id="a-subroom" x1="13.468" y1="50.736" x2="46.355" y2="9.487" gradientUnits="userSpaceOnUse">
			<stop offset="0" stop-color="#102834" />
			<stop offset="1" stop-color="#465F6C" />
		</linearGradient>
		<linearGradient id="b-subroom" x1="14.819" y1="49.04" x2="45.017" y2="11.165" gradientUnits="userSpaceOnUse">
			<stop offset="0" stop-color="#465F6C" />
			<stop offset="1" stop-color="#102834" />
		</linearGradient>
		<linearGradient id="c-subroom" x1="30.062" y1="28.026" x2="29.906" y2="28.772" gradientUnits="userSpaceOnUse">
			<stop offset="0" stop-color="#7A78FF" />
			<stop offset=".999" stop-color="#4644C9" />
		</linearGradient>
		<linearGradient id="d-subroom" x1="23.341" y1="39.588" x2="33.894" y2="12.641" gradientUnits="userSpaceOnUse">
			<stop offset="0" stop-color="#EAF874" />
			<stop offset=".133" stop-color="#EBF87B" />
			<stop offset=".324" stop-color="#EEF98E" />
			<stop offset=".549" stop-color="#F3FBAC" />
			<stop offset=".798" stop-color="#F9FDD7" />
			<stop offset="1" stop-color="#fff" />
		</linearGradient>
		<linearGradient id="e-subroom" x1="31.187" y1="28.274" x2="31.031" y2="29.02" gradientUnits="userSpaceOnUse">
			<stop offset="0" stop-color="#465F6C" />
			<stop offset="1" stop-color="#102834" />
		</linearGradient>
	</defs>
</svg>
