<svg xmlns="http://www.w3.org/2000/svg" viewBox="0 0 24 24" class="MuiSvgIcon-root MuiSvgIcon-fontSizeMedium css-vubbuv" focusable="false" aria-hidden="true"><path d="M10.13,11.67A4.62,4.62,0,1,0,5.51,7.05,4.62,4.62,0,0,0,10.13,11.67Zm0-7A2.42,2.42,0,1,1,7.71,7.05,2.43,2.43,0,0,1,10.13,4.63Z"></path><path d="M 17.988281 12.390625 C 17.160923 12.419391 16.453965 13.473272 17.212891 14.269531 L 18.306641 15.412109 L 17.380859 15.414062 C 16.461158 15.385953 13.859375 15.419922 13.859375 15.419922 C 12.39271 15.419922 12.39271 17.619141 13.859375 17.619141 L 17.380859 17.615234 C 17.716946 17.615401 17.937383 17.61384 18.378906 17.613281 L 17.166016 18.880859 C 16.154115 19.942538 17.747865 21.46207 18.759766 20.400391 C 18.759766 20.400391 20.577222 18.540609 21.191406 17.855469 L 21.804688 17.21875 L 21.78125 17.195312 C 22.046002 16.837587 22.069263 16.319942 21.851562 15.933594 C 21.768832 15.786774 21.652404 15.658869 21.5 15.566406 L 21.238281 15.294922 C 20.624097 14.609782 18.806641 12.751953 18.806641 12.751953 C 18.553665 12.486533 18.264067 12.381036 17.988281 12.390625 z"></path><path d="M2,21.13v.44H4.2v-.44a5.94,5.94,0,0,1,5.93-5.94,5.57,5.57,0,0,1,1.36.17l.58-2.12A7.76,7.76,0,0,0,10.13,13,8.15,8.15,0,0,0,2,21.13Z"></path>
</svg>
