<?xml version="1.0" encoding="utf-8" standalone="no"?>
<!DOCTYPE svg PUBLIC "-//W3C//DTD SVG 1.1//EN" "http://www.w3.org/Graphics/SVG/1.1/DTD/svg11.dtd">
<svg xmlns="http://www.w3.org/2000/svg" viewBox="0 0 24 24">
  <path d="M10.68,11.09l.19,0L12,9.91a1.11,1.11,0,0,0,0-.19,1.37,1.37,0,1,0-1.37,1.37Z" />
  <path d="M3.69,18.26,5.24,16.7H5.09a1.37,1.37,0,0,1-1.25-1.47V8.75A1.36,1.36,0,0,1,5.06,7.31h6.79A1.38,1.38,0,0,1,13.1,8.78v.06l1.55-1.55a3.27,3.27,0,0,0-2.73-2H5A3.27,3.27,0,0,0,2,8.78V15.2A3.27,3.27,0,0,0,3.69,18.26Z" />
  <path d="M13.1,13v2.29a1.35,1.35,0,0,1-1.22,1.44H9.37l-2,2h4.53a3.29,3.29,0,0,0,3-3.45v-4.1Z" />
  <path d="M16.28,9.79l-.07.13,0,4,.17.5,4.29,4.34L22,18.2V5.81L20.77,5.3Zm3.88,5.89L18,13.54V10.48l2.14-2.15Z" />
  <rect x="-1.1" y="10.99" width="26.2" height="2.08" transform="translate(-4.99 12.01) rotate(-45.02)" class="off-line"  />
</svg>
