
  <?xml version="1.0" encoding="UTF-8"?>
  <svg xmlns="http://www.w3.org/2000/svg" width="24" height="24" viewBox="0 0 24 24">
    <path
      d="M19.15,6.53H1v2H15.84v8.53c0,2.72-2.15,4.94-4.79,4.94h-3.26c-2.64,0-4.79-2.22-4.79-4.94v-5.71H1v5.71c0,3.83,3.04,6.94,6.79,6.94h3.26c3.74,0,6.79-3.11,6.79-6.94v-2.46h1.31c2.12,0,3.85-1.76,3.85-3.93v-.21c0-2.17-1.73-3.93-3.85-3.93Zm1.85,4.14c0,1.06-.83,1.93-1.85,1.93h-1.31v-4.07h1.31c1.02,0,1.85,.87,1.85,1.93v.21Z" />
    <path
      d="M5.44,4.74c-.15,0-.29-.03-.43-.1-.5-.24-.71-.84-.47-1.33L5.86,.57c.24-.5,.84-.71,1.33-.47,.5,.24,.71,.84,.47,1.33l-1.32,2.74c-.17,.36-.53,.57-.9,.57Z" />
    <path
      d="M9.02,4.74c-.15,0-.29-.03-.43-.1-.5-.24-.71-.84-.47-1.33l1.32-2.74c.24-.5,.84-.71,1.33-.47,.5,.24,.71,.84,.47,1.33l-1.32,2.74c-.17,.36-.53,.57-.9,.57Z" />
    <path
      d="M12.63,4.74c-.15,0-.29-.03-.43-.1-.5-.24-.71-.84-.47-1.33l1.32-2.74c.24-.5,.84-.71,1.33-.47,.5,.24,.71,.84,.47,1.33l-1.32,2.74c-.17,.36-.53,.57-.9,.57Z" />
  </svg>
