<?xml version="1.0" encoding="utf-8" standalone="no"?>
<!DOCTYPE svg PUBLIC "-//W3C//DTD SVG 1.1//EN" "http://www.w3.org/Graphics/SVG/1.1/DTD/svg11.dtd">
<svg viewBox="0 0 120 120" fill="none" xmlns="http://www.w3.org/2000/svg">
	<circle cx="60" cy="60" r="60" fill="#001C29" />
	<path
		d="M46.7 28h23.9c13.6 0 24.7 11 24.7 24.7 0 13.6-11 24.7-24.7 24.7h-5.1l-17 12.5V77.4h-1.9C33 77.3 22 66.3 22 52.7 22 39 33 28 46.7 28z"
		fill="url(#a-encrypted-message)" />
	<path
		d="M47.4 29.9h22.4c12.8 0 23.1 10.1 23.1 22.5S82.5 74.9 69.8 74.9H47.4c-12.8 0-23.1-10.1-23.1-22.5s10.3-22.5 23.1-22.5z"
		fill="url(#b-encrypted-message)" />
	<path
		d="M48.4 32.6h20.5c11.7 0 21.1 8.9 21.1 19.8 0 11-9.5 19.8-21.1 19.8H48.4c-11.7 0-21.1-8.9-21.1-19.8-.1-10.9 9.4-19.8 21.1-19.8z"
		fill="url(#c-encrypted-message)" />
	<path d="M47.3 55.6a3.2 3.2 0 1 0 0-6.4 3.2 3.2 0 0 0 0 6.4z" fill="url(#d-encrypted-message)" />
	<path d="M58.6 55.6a3.2 3.2 0 1 0 0-6.4 3.2 3.2 0 0 0 0 6.4z" fill="url(#e-encrypted-message)" />
	<path d="M69.9 55.6a3.2 3.2 0 1 0 0-6.4 3.2 3.2 0 0 0 0 6.4z" fill="url(#f-encrypted-message)" />
	<path
		d="M84.3 54.3c-4.8 0-8.7 3.9-8.7 8.7v9.1h3V63c0-3.1 2.5-5.7 5.7-5.7 3.1 0 5.7 2.5 5.7 5.7v9.8h-3.7v3H93V63c0-4.8-3.9-8.7-8.7-8.7z"
		fill="url(#g-encrypted-message)" />
	<path
		d="M84.7 53.9c-4.8 0-8.7 3.9-8.7 8.7V72h3v-9.4c0-3.1 2.5-5.7 5.7-5.7s5.7 2.5 5.7 5.7v9.8h-4.1v3h7.1V62.6c0-4.8-3.9-8.7-8.7-8.7z"
		fill="url(#h-encrypted-message)" />
	<path
		d="M90.3 90.3H79.2c-3.9 0-7.1-3.2-7.1-7.1V72.1c0-2.1 1.7-3.7 3.7-3.7h17.8c2.1 0 3.7 1.7 3.7 3.7v11.1c.1 4-3.1 7.1-7 7.1z"
		fill="url(#i-encrypted-message)" />
	<path
		d="M90.2 88.8H79.4c-3.1 0-5.6-2.5-5.6-5.6V72.4c0-1.3 1.1-2.4 2.4-2.4h16.9c1.3 0 2.4 1.1 2.4 2.4v11c.1 3-2.3 5.4-5.3 5.4z"
		fill="url(#j-encrypted-message)" />
	<path
		d="M90 88.3H79.5c-2.8 0-5.1-2.3-5.1-5.1V72.3c0-1 .8-1.8 1.8-1.8h16.9c1 0 1.8.8 1.8 1.8v10.9c.1 2.8-2.1 5.1-4.9 5.1z"
		fill="url(#k-encrypted-message)" />
	<path d="m87.4 82.4-1.5-5c.3-.3.5-.7.5-1.2 0-.9-.8-1.7-1.7-1.7-.9 0-1.7.8-1.7 1.7 0 .5.2.9.5 1.2l-1.5 5h5.4z"
		fill="#061C28" />
	<path d="M85.9 77.4c.3-.3.5-.7.5-1.2 0-.9-.8-1.7-1.7-1.7h-.3c.8.1 1.4.8 1.4 1.7 0 .5-.2.9-.5 1.2l1.5 5h.6l-1.5-5z"
		fill="url(#l-encrypted-message)" />
	<defs>
		<linearGradient id="a-encrypted-message" x1="69.5" y1="98.5" x2="46.693" y2="28.963"
			gradientUnits="userSpaceOnUse">
			<stop offset="0" stop-color="#061C28" />
			<stop offset=".653" stop-color="#334B58" />
			<stop offset="1" stop-color="#465F6C" />
		</linearGradient>
		<linearGradient id="b-encrypted-message" x1="79.451" y1="68.864" x2="42.179" y2="39.456"
			gradientUnits="userSpaceOnUse">
			<stop offset="0" stop-color="#465F6C" />
			<stop offset=".411" stop-color="#334B58" />
			<stop offset="1" stop-color="#102834" />
		</linearGradient>
		<linearGradient id="c-encrypted-message" x1="81.132" y1="70.19" x2="36.083" y2="34.646"
			gradientUnits="userSpaceOnUse">
			<stop offset="0" stop-color="#102834" />
			<stop offset=".589" stop-color="#334B58" />
			<stop offset="1" stop-color="#465F6C" />
		</linearGradient>
		<linearGradient id="d-encrypted-message" x1="49.425" y1="54.057" x2="45.711" y2="51.126"
			gradientUnits="userSpaceOnUse">
			<stop offset="0" stop-color="#324B58" />
			<stop offset=".603" stop-color="#1F3744" />
			<stop offset="1" stop-color="#102834" />
		</linearGradient>
		<linearGradient id="e-encrypted-message" x1="60.685" y1="54.057" x2="56.97" y2="51.126"
			gradientUnits="userSpaceOnUse">
			<stop offset="0" stop-color="#324B58" />
			<stop offset=".603" stop-color="#1F3744" />
			<stop offset="1" stop-color="#102834" />
		</linearGradient>
		<linearGradient id="f-encrypted-message" x1="71.944" y1="54.057" x2="68.229" y2="51.126"
			gradientUnits="userSpaceOnUse">
			<stop offset="0" stop-color="#324B58" />
			<stop offset=".603" stop-color="#1F3744" />
			<stop offset="1" stop-color="#102834" />
		</linearGradient>
		<linearGradient id="g-encrypted-message" x1="82.316" y1="69.645" x2="91.951" y2="59.917"
			gradientUnits="userSpaceOnUse">
			<stop offset="0" stop-color="#EAF874" />
			<stop offset=".274" stop-color="#E6F470" />
			<stop offset=".562" stop-color="#D9E766" />
			<stop offset=".856" stop-color="#C4D255" />
			<stop offset="1" stop-color="#B7C54A" />
		</linearGradient>
		<linearGradient id="h-encrypted-message" x1="82.562" y1="69.401" x2="92.318" y2="59.55"
			gradientUnits="userSpaceOnUse">
			<stop offset="0" stop-color="#B7C54A" />
			<stop offset=".144" stop-color="#C4D255" />
			<stop offset=".438" stop-color="#D9E766" />
			<stop offset=".727" stop-color="#E6F470" />
			<stop offset="1" stop-color="#EAF874" />
		</linearGradient>
		<linearGradient id="i-encrypted-message" x1="74.671" y1="79.392" x2="106.103" y2="79.392"
			gradientUnits="userSpaceOnUse">
			<stop offset="0" stop-color="#B7C54A" />
			<stop offset=".144" stop-color="#C4D255" />
			<stop offset=".438" stop-color="#D9E766" />
			<stop offset=".727" stop-color="#E6F470" />
			<stop offset="1" stop-color="#EAF874" />
		</linearGradient>
		<linearGradient id="j-encrypted-message" x1="73.885" y1="79.392" x2="95.556" y2="79.392"
			gradientUnits="userSpaceOnUse">
			<stop offset="0" stop-color="#EAF874" />
			<stop offset=".274" stop-color="#E6F470" />
			<stop offset=".562" stop-color="#D9E766" />
			<stop offset=".856" stop-color="#C4D255" />
			<stop offset="1" stop-color="#B7C54A" />
		</linearGradient>
		<linearGradient id="k-encrypted-message" x1="74.411" y1="79.392" x2="95.03" y2="79.392"
			gradientUnits="userSpaceOnUse">
			<stop offset="0" stop-color="#B7C54A" />
			<stop offset=".144" stop-color="#C4D255" />
			<stop offset=".438" stop-color="#D9E766" />
			<stop offset=".727" stop-color="#E6F470" />
			<stop offset="1" stop-color="#EAF874" />
		</linearGradient>
		<linearGradient id="l-encrypted-message" x1="83.902" y1="78.303" x2="86.694" y2="78.518"
			gradientUnits="userSpaceOnUse">
			<stop offset="0" stop-color="#102834" />
			<stop offset=".589" stop-color="#334B58" />
			<stop offset="1" stop-color="#465F6C" />
		</linearGradient>
	</defs>
</svg>
