<svg xmlns="http://www.w3.org/2000/svg" viewBox="0 0 24 24" class="MuiSvgIcon-root MuiSvgIcon-fontSizeMedium css-vubbuv" focusable="false" aria-hidden="true"><path d="M20,17.69h0a2.32,2.32,0,0,1-2.3,2.3H13.46v2h4.23A4.3,4.3,0,0,0,22,17.69V13.47H20Z"></path><path d="M13.45,10.6a1,1,0,0,0,1.47,0l5-5V8.2A1,1,0,0,0,22,8.2v-5A1.19,1.19,0,0,0,20.81,2h-5a1,1,0,0,0,0,2.08h2.68l-5,5.05A1,1,0,0,0,13.45,10.6Z"></path><path d="M4,6.3H4A2.32,2.32,0,0,1,6.29,4h4.23V2H6.29A4.3,4.3,0,0,0,2,6.3v4.23H4Z"></path><path d="M6.29,20a2.3,2.3,0,0,1-2.12-1.41A2.25,2.25,0,0,1,4,17.7V13.47H2v4.22a4.17,4.17,0,0,0,.34,1.68,4.3,4.3,0,0,0,4,2.63h4.23V20Z"></path></svg>