<?xml version="1.0" encoding="UTF-8"?>
<svg width="24" height="24" viewBox="0 0 24 24" style="" xmlns="http://www.w3.org/2000/svg" fill="currentColor"
  xmlns:xlink="http://www.w3.org/1999/xlink">

  <g transform="matrix(1.248, 0, 0, 1.134, -2.982, -1.692)" data-editor-transform="true">
    <path d="M 3.193 2.773 H 6.938 V 5.041 H 3.193 Z" transform="matrix(1, 0, 0, 1, -0.17, 0)" />
    <path d="M 7.91 2.773 H 11.655 V 5.041 H 7.91 Z" transform="matrix(1, 0, 0, 1, -0.17, 0)" />
    <path d="M 12.696 2.773 H 16.441 V 5.041 H 12.696 Z" transform="matrix(1, 0, 0, 1, -0.17, 0)" />
    <path d="M 17.482 2.773 H 21.227 V 5.041 H 17.482 Z" transform="matrix(1, 0, 0, 1, -0.17, 0)" />
    <path d="M 3.193 5.989 H 6.938 V 8.257 H 3.193 Z" transform="matrix(1, 0, 0, 1, -0.17, 0)" />
    <path d="M 7.91 5.989 H 11.655 V 8.257 H 7.91 Z" transform="matrix(1, 0, 0, 1, -0.17, 0)" />
    <path d="M 12.696 5.989 H 16.441 V 8.257 H 12.696 Z" transform="matrix(1, 0, 0, 1, -0.17, 0)" />
    <path d="M 17.482 5.989 H 21.227 V 8.257 H 17.482 Z" transform="matrix(1, 0, 0, 1, -0.17, 0)" />
    <path d="M 3.193 9.269 H 6.938 V 11.537 H 3.193 Z" transform="matrix(1, 0, 0, 1, -0.17, 0)" />
    <path d="M 7.91 9.269 H 11.655 V 11.537 H 7.91 Z" transform="matrix(1, 0, 0, 1, -0.17, 0)" />
    <path d="M 12.696 9.269 H 16.441 V 11.537 H 12.696 Z" transform="matrix(1, 0, 0, 1, -0.17, 0)" />
    <path d="M 17.482 9.269 H 21.227 V 11.537 H 17.482 Z" transform="matrix(1, 0, 0, 1, -0.17, 0)" />
    <path d="M 3.193 12.486 H 6.938 V 14.754 H 3.193 Z" transform="matrix(1, 0, 0, 1, -0.17, 0)" />
    <path d="M 7.91 12.486 H 11.655 V 14.754 H 7.91 Z" transform="matrix(1, 0, 0, 1, -0.17, 0)" />
    <path d="M 12.696 12.486 H 16.441 V 14.754 H 12.696 Z" transform="matrix(1, 0, 0, 1, -0.17, 0)" />
    <path d="M 17.482 12.486 H 21.227 V 14.754 H 17.482 Z" transform="matrix(1, 0, 0, 1, -0.17, 0)" />
    <path d="M 3.193 15.576 H 6.938 V 17.845 H 3.193 Z" transform="matrix(1, 0, 0, 1, -0.17, 0)" />
    <path d="M 7.91 15.576 H 11.655 V 17.845 H 7.91 Z" transform="matrix(1, 0, 0, 1, -0.17, 0)" />
    <path d="M 12.696 15.576 H 16.441 V 17.845 H 12.696 Z" transform="matrix(1, 0, 0, 1, -0.17, 0)" />
    <path d="M 17.482 15.576 H 21.227 V 17.845 H 17.482 Z" transform="matrix(1, 0, 0, 1, -0.17, 0)" />
    <path d="M 3.193 18.793 H 6.938 V 21.061 H 3.193 Z" transform="matrix(1, 0, 0, 1, -0.17, 0)" />
    <path d="M 7.91 18.793 H 11.655 V 21.061 H 7.91 Z" transform="matrix(1, 0, 0, 1, -0.17, 0)" />
    <path d="M 12.696 18.793 H 16.441 V 21.061 H 12.696 Z" transform="matrix(1, 0, 0, 1, -0.17, 0)" />
    <path d="M 17.482 18.793 H 21.227 V 21.061 H 17.482 Z" transform="matrix(1, 0, 0, 1, -0.17, 0)" />
  </g>

</svg>