<?xml version="1.0" encoding="UTF-8" standalone="no"?>
<!DOCTYPE svg PUBLIC "-//W3C//DTD SVG 1.1//EN" "http://www.w3.org/Graphics/SVG/1.1/DTD/svg11.dtd">
<svg width="100%" height="100%" viewBox="0 0 24 24" version="1.1" xmlns="http://www.w3.org/2000/svg">
    <g>
        <rect x="0" y="4" width="5.375" height="3.6" />
        <rect x="6" y="4" width="5.375" height="3.6" />
        <rect x="12" y="4" width="5.375" height="3.6" />
        <rect x="18" y="4" width="5.375" height="3.6" />
    </g>
    <g>
        <rect x="0" y="8" width="5.375" height="3.6" />
        <rect x="6" y="8" width="5.375" height="3.6" />
        <rect x="12" y="8" width="5.375" height="3.6" />
        <rect x="18" y="8" width="5.375" height="3.6" />
    </g>
    <g>
        <rect x="0" y="12" width="5.375" height="3.6" />
        <rect x="6" y="12" width="5.375" height="3.6" />
        <rect x="12" y="12" width="5.375" height="3.6" />
        <rect x="18" y="12" width="5.375" height="3.6" />
    </g>
    <g>
        <rect x="0" y="16" width="5.375" height="3.6" />
        <rect x="6" y="16" width="5.375" height="3.6" />
        <rect x="12" y="16" width="5.375" height="3.6" />
        <rect x="18" y="16" width="5.375" height="3.6" />
    </g>

</svg>