<?xml version="1.0" encoding="UTF-8"?>
<svg width="24" height="24" viewBox="0 0 24 24" stroke="currentcolor" xmlns="http://www.w3.org/2000/svg">
  <path fill="none" stroke-width="2"
    d="M 1.316 12.195 C 1.316 12.195 8.529 12.195 8.529 12.195 C 8.835 12.195 9.084 12.489 9.084 12.853 C 9.084 12.853 9.084 18.112 9.084 18.112 C 9.084 18.475 8.835 18.77 8.529 18.77 C 8.529 18.77 1.316 18.77 1.316 18.77 C 1.009 18.77 0.761 18.475 0.761 18.112 C 0.761 18.112 0.761 12.853 0.761 12.853 C 0.761 12.489 1.009 12.195 1.316 12.195 Z"
    transform="matrix(1, 0, 0, 1, 1.529, 1.448)" />
  <path fill="none" stroke-width="2"
    d="M 12.413 12.195 C 12.413 12.195 19.626 12.195 19.626 12.195 C 19.933 12.195 20.181 12.489 20.181 12.853 C 20.181 12.853 20.181 18.112 20.181 18.112 C 20.181 18.475 19.933 18.77 19.626 18.77 C 19.626 18.77 12.413 18.77 12.413 18.77 C 12.107 18.77 11.858 18.475 11.858 18.112 C 11.858 18.112 11.858 12.853 11.858 12.853 C 11.858 12.489 12.107 12.195 12.413 12.195 Z"
    transform="matrix(1, 0, 0, 1, 1.529, 1.448)" />
  <path fill="none" stroke-width="2"
    d="M 12.413 2.333 C 12.413 2.333 19.626 2.333 19.626 2.333 C 19.933 2.333 20.181 2.628 20.181 2.991 C 20.181 2.991 20.181 8.25 20.181 8.25 C 20.181 8.614 19.933 8.908 19.626 8.908 C 19.626 8.908 12.413 8.908 12.413 8.908 C 12.107 8.908 11.858 8.614 11.858 8.25 C 11.858 8.25 11.858 2.991 11.858 2.991 C 11.858 2.628 12.107 2.333 12.413 2.333 Z"
    transform="matrix(1, 0, 0, 1, 1.529, 1.448)" />
  <path fill="none" stroke-width="2"
    d="M 1.316 2.333 C 1.316 2.333 8.529 2.333 8.529 2.333 C 8.835 2.333 9.084 2.628 9.084 2.991 C 9.084 2.991 9.084 8.25 9.084 8.25 C 9.084 8.614 8.835 8.908 8.529 8.908 C 8.529 8.908 1.316 8.908 1.316 8.908 C 1.009 8.908 0.761 8.614 0.761 8.25 C 0.761 8.25 0.761 2.991 0.761 2.991 C 0.761 2.628 1.009 2.333 1.316 2.333 Z"
    transform="matrix(1, 0, 0, 1, 1.529, 1.448)" />
</svg>