<?xml version="1.0" encoding="UTF-8"?>
<svg width="24" height="24" style="" xmlns="http://www.w3.org/2000/svg" fill="currentcolor" viewBox="0 0 24 24">
  <path d="M 6.694 9.582 H 11.326 V 13.516 H 6.694 Z" transform="matrix(1, 0, 0, 1, -2.886, -2.339)" />
  <path d="M 18.447 9.582 H 23.079 V 13.516 H 18.447 Z" transform="matrix(1, 0, 0, 1, -2.886, -2.339)" />
  <path d="M 12.528 9.582 H 17.16 V 13.516 H 12.528 Z" transform="matrix(1, 0, 0, 1, -2.886, -2.339)" />
  <path d="M 6.694 15.161 H 11.326 V 19.096 H 6.694 Z" transform="matrix(1, 0, 0, 1, -2.886, -2.339)" />
  <path d="M 12.528 15.161 H 17.16 V 19.096 H 12.528 Z" transform="matrix(1, 0, 0, 1, -2.886, -2.339)" />
  <path d="M 18.447 15.161 H 23.079 V 19.096 H 18.447 Z" transform="matrix(1, 0, 0, 1, -2.886, -2.339)" />
</svg>