<?xml version="1.0" encoding="utf-8" standalone="no"?>
<!DOCTYPE svg PUBLIC "-//W3C//DTD SVG 1.1//EN" "http://www.w3.org/Graphics/SVG/1.1/DTD/svg11.dtd">
<svg xmlns="http://www.w3.org/2000/svg" viewBox="0 0 24 24">
<path d="M12 2a10 10 0 1 0 0 20 10 10 0 0 0 0-20zm0 1.8a8.2 8.2 0 1 1 0 16.4 8.2 8.2 0 0 1 0-16.4z" />
<circle cx="9" cy="10" r="1.5" />
<circle cx="15" cy="10" r="1.5" />
<path d="M8.2 13.6a.9.9 0 0 0-.63 1.55c.97 1.02 2.6 1.85 4.43 1.85s3.46-.83 4.43-1.85a.9.9 0 0 0-.63-1.55.9.9 0 0 0-.65.28c-.72.76-1.92 1.32-3.15 1.32s-2.43-.56-3.15-1.32a.9.9 0 0 0-.65-.28z" />
</svg>
