<?xml version="1.0" encoding="UTF-8" standalone="no"?>
<svg
   viewBox="0 0 24 24"
   version="1.1"
   id="svg48"
   sodipodi:docname="secure-filled.svg"
   inkscape:version="1.2.2 (b0a8486541, 2022-12-01)"
   xmlns:inkscape="http://www.inkscape.org/namespaces/inkscape"
   xmlns:sodipodi="http://sodipodi.sourceforge.net/DTD/sodipodi-0.dtd"
   xmlns="http://www.w3.org/2000/svg"
   xmlns:svg="http://www.w3.org/2000/svg">
  <defs
     id="defs52" />
  <sodipodi:namedview
     id="namedview50"
     pagecolor="#505050"
     bordercolor="#eeeeee"
     borderopacity="1"
     inkscape:showpageshadow="0"
     inkscape:pageopacity="0"
     inkscape:pagecheckerboard="0"
     inkscape:deskcolor="#505050"
     showgrid="false"
     inkscape:zoom="42.791667"
     inkscape:cx="10.65628"
     inkscape:cy="10.153846"
     inkscape:window-width="1920"
     inkscape:window-height="1043"
     inkscape:window-x="2560"
     inkscape:window-y="0"
     inkscape:window-maximized="1"
     inkscape:current-layer="svg48" />
  <path
     id="path44"
     d="M 7.8007812 2.0195312 C 7.3398238 2.0254823 6.9355624 2.3286784 6.8007812 2.7695312 C 6.8007812 2.8695312 6.7392187 2.960547 6.6992188 3.0605469 C 6.5338098 3.4134505 6.3331554 3.7485256 6.0996094 4.0605469 C 5.8717241 4.3350848 5.6173758 4.5863177 5.3398438 4.8105469 C 5.0296748 5.0440675 4.6942341 5.2418213 4.3398438 5.4003906 C 4.129844 5.4803905 3.9104686 5.5396094 3.7304688 5.5996094 C 3.2732859 5.7124248 2.9569895 6.1289126 2.9707031 6.5996094 L 2.9707031 9.0800781 C 3.0007031 9.5100777 3 10.000391 3 10.400391 C 3.0603559 11.301402 3.2186419 12.193408 3.4707031 13.060547 C 3.9756359 14.775054 4.8371776 16.363376 6 17.720703 C 6.9027786 18.764446 7.9626735 19.661945 9.140625 20.380859 L 11.410156 21.820312 L 11.470703 21.820312 C 11.626634 21.92954 11.809801 21.991674 12 22 C 12.164141 21.99918 12.326259 21.958829 12.470703 21.880859 L 12.619141 21.789062 L 14.75 20.439453 L 15.539062 19.919922 C 16.264242 19.403295 16.934428 18.813766 17.539062 18.160156 C 18.760754 16.857573 19.691823 15.308966 20.269531 13.619141 C 20.749059 12.242966 20.996244 10.797166 21 9.3398438 L 21 6.609375 C 21.01007 6.145303 20.69947 5.7350767 20.25 5.6191406 C 20.05 5.5591407 19.840625 5.4999218 19.640625 5.4199219 C 19.287716 5.2585 18.952575 5.0609229 18.640625 4.8300781 C 18.363093 4.6058489 18.108744 4.3546161 17.880859 4.0800781 C 17.651014 3.7674681 17.451545 3.4324325 17.289062 3.0800781 C 17.289062 2.9800782 17.209687 2.8695311 17.179688 2.7695312 C 17.062922 2.3163318 16.647453 2.0047307 16.179688 2.0195312 L 7.8007812 2.0195312 z M 15.830078 7.5957031 A 1 1 0 0 1 16.554688 7.90625 A 1 1 0 0 1 16.855469 8.6054688 A 1 1 0 0 1 16.554688 9.3261719 L 11.765625 14.117188 A 1 1 0 0 1 10.314453 14.117188 L 7.9042969 11.716797 A 1 1 0 0 1 7.9042969 10.265625 A 0.92 0.92 0 0 1 8.5957031 9.9667969 A 1.1 1.1 0 0 1 9.3652344 10.255859 L 11.035156 11.935547 L 15.105469 7.90625 A 1 1 0 0 1 15.830078 7.5957031 z " />
</svg>
