<?xml version="1.0" encoding="utf-8" standalone="no"?>
<!DOCTYPE svg PUBLIC "-//W3C//DTD SVG 1.1//EN" "http://www.w3.org/Graphics/SVG/1.1/DTD/svg11.dtd">
<svg xmlns="http://www.w3.org/2000/svg" viewBox="0 0 24 24">
	<path
		d="M21.65,11.16l-3.54-3.54c-.41-.41-1.07-.41-1.47,0-.41,.41-.41,1.07,0,1.47l1.9,1.9h-7.13c-.58,0-1.04,.47-1.04,1.04,0,.58,.47,1.04,1.04,1.04h7.06l-1.83,1.83c-.41,.41-.41,1.07,0,1.47,.41,.41,1.07,.41,1.47,0l3.55-3.55c.46-.46,.46-1.21,0-1.67Z" />
	<path
		d="M12,20H5c-.55,0-1-.42-1-.93V4.93c0-.51,.45-.93,1-.93h7c.55,0,1-.45,1-1s-.45-1-1-1H5c-1.66,0-3,1.31-3,2.93v14.15c0,1.61,1.35,2.93,3,2.93h7c.55,0,1-.45,1-1s-.45-1-1-1Z" />
</svg>
