<?xml version="1.0" encoding="UTF-8"?>
<svg width="24" height="24" style="" xmlns="http://www.w3.org/2000/svg" viewBox="0 0 24 24" stroke="currentcolor">

  <path fill="none" stroke-width="1.5"
    d="M 2.854 2.605 C 2.854 2.605 21.038 2.605 21.038 2.605 C 21.29 2.605 21.494 2.815 21.494 3.075 C 21.494 3.075 21.494 14.571 21.494 14.571 C 21.494 14.831 21.29 15.041 21.038 15.041 C 21.038 15.041 2.854 15.041 2.854 15.041 C 2.601 15.041 2.397 14.831 2.397 14.571 C 2.397 14.571 2.397 3.075 2.397 3.075 C 2.397 2.815 2.601 2.605 2.854 2.605 Z" />
  <path fill="none" stroke-width="1.5"
    d="M 16.38 17.637 C 16.38 17.637 21.129 17.637 21.129 17.637 C 21.331 17.637 21.494 17.805 21.494 18.013 C 21.494 18.013 21.494 21.019 21.494 21.019 C 21.494 21.227 21.331 21.395 21.129 21.395 C 21.129 21.395 16.38 21.395 16.38 21.395 C 16.179 21.395 16.015 21.227 16.015 21.019 C 16.015 21.019 16.015 18.013 16.015 18.013 C 16.015 17.805 16.179 17.637 16.38 17.637 Z" />
  <path fill="none" stroke-width="1.5"
    d="M 9.575 17.637 C 9.575 17.637 14.324 17.637 14.324 17.637 C 14.526 17.637 14.689 17.805 14.689 18.013 C 14.689 18.013 14.689 21.019 14.689 21.019 C 14.689 21.227 14.526 21.395 14.324 21.395 C 14.324 21.395 9.575 21.395 9.575 21.395 C 9.373 21.395 9.21 21.227 9.21 21.019 C 9.21 21.019 9.21 18.013 9.21 18.013 C 9.21 17.805 9.373 17.637 9.575 17.637 Z" />
  <path fill="none" stroke-width="1.5"
    d="M 2.762 17.637 C 2.762 17.637 7.511 17.637 7.511 17.637 C 7.713 17.637 7.876 17.805 7.876 18.013 C 7.876 18.013 7.876 21.019 7.876 21.019 C 7.876 21.227 7.713 21.395 7.511 21.395 C 7.511 21.395 2.762 21.395 2.762 21.395 C 2.56 21.395 2.397 21.227 2.397 21.019 C 2.397 21.019 2.397 18.013 2.397 18.013 C 2.397 17.805 2.56 17.637 2.762 17.637 Z" />

</svg>