<?xml version="1.0" encoding="UTF-8"?><svg xmlns="http://www.w3.org/2000/svg" viewBox="0 0 24 24"><g><path d="M18.95,6.42V15.46c0,.38-.31,.7-.7,.7H5.74c-.38,0-.7-.31-.7-.7V6.42h-1.39V15.46c0,1.15,.93,2.09,2.09,2.09h12.52c1.15,0,2.09-.93,2.09-2.09V6.42h-1.39Zm-7.27,9.82l.05-.03-.05,.03ZM5.04,6.42h-1.39"/><path d="M18.26,17.79H5.74c-1.28,0-2.33-1.05-2.33-2.33V6.17h1.88V15.46c0,.25,.2,.45,.45,.45h12.52c.25,0,.45-.2,.45-.45V6.17h1.88V15.46c0,1.28-1.05,2.33-2.33,2.33ZM3.9,6.66V15.46c0,1.02,.83,1.84,1.84,1.84h12.52c1.02,0,1.84-.83,1.84-1.84V6.66h-.9V15.46c0,.52-.42,.94-.94,.94h-6.42v.02s0-.02,0-.02H5.74c-.52,0-.94-.42-.94-.94V6.66h-.9Z"/></g><path d="M7.75,16.21s-.08,.04-.11,.06c.04-.02,.07-.04,.11-.06ZM16.36,5.72v.7h-1.39v-.7c0-.38,.31-.7,.7-.7s.7,.31,.7,.7Z"/><g><path d="M11.74,16.21s-.08,.04-.11,.06c.03-.02,.07-.04,.11-.06h0Zm4.92,5.31c-.27,.27-.71,.27-.98,0l-2.99-2.98v2.49c0,.38-.31,.7-.7,.7s-.7-.31-.7-.7v-2.5l-2.99,2.99c-.25,.29-.69,.33-.98,.08-.29-.25-.33-.69-.08-.98,.02-.03,.05-.05,.08-.08l2.99-2.99h3.35l2.99,2.99c.27,.27,.27,.71,0,.98ZM19.65,2.24H4.35c-1.15,0-2.09,.93-2.09,2.09v1.39c0,.38,.31,.7,.7,.7H21.04c.38,0,.7-.31,.7-.7v-1.39c0-1.15-.93-2.09-2.09-2.09Zm.7,2.78H3.65v-.7c0-.38,.31-.7,.7-.7h15.3c.38,0,.7,.31,.7,.7v.7Z"/><path d="M7.79,22c-.22,0-.44-.07-.61-.23-.39-.34-.44-.93-.1-1.32,.03-.04,.06-.07,.1-.1l3.05-3.05h3.55l3.06,3.06c.36,.37,.36,.96,0,1.32h0c-.36,.36-.96,.36-1.32,0l-2.57-2.57v1.9c0,.52-.42,.94-.94,.94s-.94-.42-.94-.94v-1.91l-2.57,2.57c-.18,.21-.44,.32-.7,.32Zm2.63-4.21l-2.92,2.92s-.05,.04-.06,.06c-.16,.19-.14,.48,.05,.64,.19,.16,.48,.14,.64-.05l3.42-3.42v3.09c0,.25,.2,.45,.45,.45s.45-.2,.45-.45v-3.08l3.4,3.4c.18,.17,.46,.17,.64,0,.17-.18,.17-.46,0-.64l-2.92-2.92h-3.15Zm1.33-1.31l-.26-.41s.1-.06,.15-.08l.1-.02h1.16l-1.06,.47s-.06,.03-.09,.04ZM21.04,6.66H2.96c-.52,0-.94-.42-.94-.94v-1.39c0-1.28,1.05-2.33,2.33-2.33h15.3c1.29,0,2.33,1.05,2.33,2.33v1.39c0,.52-.42,.94-.94,.94ZM4.35,2.49c-1.02,0-1.84,.83-1.84,1.84v1.39c0,.25,.2,.45,.45,.45H21.04c.25,0,.45-.2,.45-.45v-1.39c0-1.02-.83-1.84-1.84-1.84H4.35Zm16.24,2.78H3.41v-.94c0-.52,.42-.94,.94-.94h15.3c.52,0,.94,.42,.94,.94v.94Zm-16.69-.49H20.1v-.45c0-.25-.2-.45-.45-.45H4.35c-.25,0-.45,.2-.45,.45v.45Z"/></g></svg>
